<svg width="178" height="315" viewBox="0 0 178 315" fill="none" xmlns="http://www.w3.org/2000/svg">
<path id="animation" d="M2 281C30.2089 259.611 47.5295 226.48 52.1111 191.556C56.1684 160.628 50.4331 128.439 46.2778 97.8889C42.4911 70.0489 40.8813 38.1681 30 11.7778C29.4599 10.4679 26.128 2.11111 23.5556 2.11111C23.1552 2.11111 23.0937 2.39887 22.9444 2.72223C21.6778 5.46666 20.6962 8.85706 19.8889 11.6667C5.74898 60.8736 8.98136 114.292 14.0556 164.611C18.044 204.163 25.1472 243.334 28.8889 282.889C29.7825 292.335 30 320.822 30 311.333C30 273.303 31.8422 235.064 34 197.111C34.6485 185.704 35.4371 174.22 37 162.889C37.5675 158.775 39.5533 163.77 40 164.944C54.7318 203.684 64.8773 244.932 74.3333 285.278C75.3174 289.476 76.1827 294 81.0556 294C92.2251 294 104.321 285.731 110.944 277.5C126.129 258.63 133.543 233.588 137.111 210C139.723 192.737 139.924 174.292 135.222 157.333C133.687 151.794 131.914 152.574 131.778 157.778C131.069 184.903 134.31 212.517 137.556 239.389C140.074 260.237 142.639 282.298 151.222 301.722C153.552 306.996 160.037 301.163 163.444 299.556C166.909 297.921 171.003 296.552 173.778 293.778C174.811 292.745 176 290 176 290" stroke="black" stroke-width="3" stroke-linecap="round"/>
</svg>
